PathFileType	4	(X/Y/Z)	 s04c0302.trc
DataRate	CameraRate	NumFrames	NumMarkers	Units	OrigDataRate	OrigDataStartFrame	OrigNumFrames
200	200	4	50	mm	200	1251	2000
Frame#	Time	racr			lacr			c7			jug			rlel			rdr			llel			ldr			s2			lic			ric			lasi			rasi			rpsi			lpsi			rgt			lgt			rth1			rth2			rth3			rth4			rlfc			rmfc			rsh1			rsh2			rsh3			rsh4			rlmal			rmmal			rcal			rtoe			rmt5			lth1			lth2			lth4			lth3			llfc			lmfc			lsh1			lsh2			lsh3			lsh4			llmal			lmmal			lcal			ltoe			lmt5			SBIKE			LBIKE			RBIKE			
		X1	Y1	Z1	X2	Y2	Z2	X3	Y3	Z3	X4	Y4	Z4	X5	Y5	Z5	X6	Y6	Z6	X7	Y7	Z7	X8	Y8	Z8	X9	Y9	Z9	X10	Y10	Z10	X11	Y11	Z11	X12	Y12	Z12	X13	Y13	Z13	X14	Y14	Z14	X15	Y15	Z15	X16	Y16	Z16	X17	Y17	Z17	X18	Y18	Z18	X19	Y19	Z19	X20	Y20	Z20	X21	Y21	Z21	X22	Y22	Z22	X23	Y23	Z23	X24	Y24	Z24	X25	Y25	Z25	X26	Y26	Z26	X27	Y27	Z27	X28	Y28	Z28	X29	Y29	Z29	X30	Y30	Z30	X31	Y31	Z31	X32	Y32	Z32	X33	Y33	Z33	X34	Y34	Z34	X35	Y35	Z35	X36	Y36	Z36	X37	Y37	Z37	X38	Y38	Z38	X39	Y39	Z39	X40	Y40	Z40	X41	Y41	Z41	X42	Y42	Z42	X43	Y43	Z43	X44	Y44	Z44	X45	Y45	Z45	X46	Y46	Z46	X47	Y47	Z47	X48	Y48	Z48	X49	Y49	Z49	X50	Y50	Z50	
1251	6.2550	816.182432	1284.380842	-63.881932	836.072070	1239.014676	-387.342002	850.065469	1343.664944	-240.789841	764.603811	1207.776219	-243.514886	584.348741	1117.263116	90.782932	708.989814	920.387046	-65.876763	609.714118	1133.949212	-556.625864	712.559870	916.231771	-454.544410	259.323640	1259.285110	-338.362602	441.497535	1193.379246	-443.181538	364.499528	1284.235924	-145.062553	454.498379	1147.906773	-384.063776	409.065346	1221.035654	-166.252869	288.512619	1305.554675	-302.148207	308.396850	1288.092191	-372.578361	314.986823	1240.880355	-124.389273	359.022423	1111.605230	-466.672708	422.721966	1131.832093	-78.306787	498.767735	1088.029637	-69.430241	543.181534	1016.939930	-54.373627	522.899605	1109.224291	-89.798307	631.051295	901.653956	-57.137569	634.015413	879.714481	-172.844444	531.007030	835.133511	-48.035966	472.376061	768.473286	-71.739174	391.088044	747.361721	-90.552070	494.806402	743.914452	-90.610804	272.324440	650.628017	-118.617954	307.111086	641.055537	-196.502981	211.820795	676.929456	-167.003427	391.825853	434.543980	-146.895881	328.274269	472.979690	-96.538318	349.507245	1027.492699	-479.854357	371.511921	943.258447	-478.967683	406.880507	943.842036	-470.561275	347.386084	857.609610	-477.031681	333.408995	689.697690	-453.999048	346.077477	663.903580	-341.201986	292.068028	567.751462	-474.383580	278.370628	484.476642	-455.011367	225.250737	413.484733	-455.963807	304.938554	476.387016	-426.316966	167.250626	277.639265	-453.890075	157.690086	281.217064	-368.433801	88.309710	296.442297	-420.745528	340.420383	128.201606	-393.460488	267.135542	132.113380	-462.524621	-176.817702	935.406259	-280.654052	-3.209705	85.497625	-484.725792	-15.004479	80.570916	-84.304915	
1252	6.2600	817.072756	1282.282975	-62.147418	835.852742	1239.995741	-385.962691	850.828452	1343.123220	-238.582321	764.591287	1207.750611	-242.421427	582.712215	1116.493911	91.643675	708.251799	920.668049	-65.953250	610.322479	1134.683605	-555.897452	712.652724	916.156437	-454.454394	259.548202	1262.090639	-339.260171	442.227572	1194.851908	-442.241084	363.904626	1286.553606	-145.270673	454.657841	1149.480574	-383.191583	407.926816	1223.845538	-166.121868	288.647852	1308.326343	-302.661151	309.068745	1290.418034	-373.050166	313.756412	1244.533812	-124.875554	359.261809	1113.255218	-466.272928	421.677484	1135.453773	-79.083903	498.202353	1092.338185	-70.539603	543.332006	1021.721522	-55.657725	522.066288	1114.128819	-90.635291	631.639343	908.124172	-58.239096	635.763640	886.897318	-175.061605	534.877768	839.341518	-49.428518	477.430865	771.335019	-72.460193	396.893325	748.130224	-91.092411	500.579154	747.213554	-91.565946	279.597180	648.777111	-118.567776	314.165776	639.472457	-196.239821	218.546993	673.547467	-166.619901	403.131014	434.676078	-146.563448	338.723008	471.600667	-96.370126	349.383911	1030.459672	-479.383745	370.447387	946.033928	-479.422695	405.843409	946.156507	-471.002723	345.557050	860.567999	-477.926354	329.527881	692.521782	-455.108221	342.510932	665.723268	-341.855829	287.224808	570.971328	-475.438897	272.842566	487.729702	-456.128462	218.997327	417.280377	-456.989204	299.399009	479.323675	-427.512620	160.348742	281.664049	-454.576283	151.247853	285.302469	-368.801696	81.844861	301.900130	-421.238657	330.102023	128.058456	-393.856985	256.831169	133.438141	-462.840927	-176.948249	935.421316	-280.646186	-3.216776	85.506846	-484.713344	-15.008943	80.578565	-84.286385	
1253	6.2650	818.039588	1279.846793	-60.412604	835.592185	1241.034406	-384.680548	851.614792	1342.451206	-236.295642	764.580592	1207.628823	-241.371938	580.852328	1115.686729	92.287700	707.975065	921.121619	-65.709429	610.859095	1135.468357	-555.022912	712.724636	916.101394	-454.386177	259.549432	1265.104256	-339.491137	442.730419	1196.683181	-441.338088	362.764411	1289.017934	-144.917338	454.456915	1151.229493	-382.150442	406.892955	1226.753547	-165.860877	288.825306	1311.313727	-303.021587	309.638201	1293.125329	-373.196095	312.802093	1248.404257	-124.951458	359.524170	1115.299234	-466.123045	420.583409	1138.812448	-79.999687	497.500519	1096.286281	-71.906824	543.135741	1026.057369	-57.470719	521.327412	1118.530200	-91.691228	634.771110	913.746961	-61.604357	636.722789	893.366927	-177.680787	537.837089	842.980120	-51.129276	481.909047	773.465900	-73.641826	401.777853	748.425362	-91.830718	505.381642	749.913269	-92.484996	286.161368	645.987343	-118.388085	321.203718	637.278447	-195.963360	224.531383	669.238702	-166.137804	413.955655	434.280888	-146.495053	348.884838	469.914119	-95.963662	349.574427	1033.607623	-478.981994	370.070541	949.084309	-479.594004	405.369161	948.854025	-471.103250	344.553230	863.744924	-478.904042	326.894919	695.767421	-455.902993	340.137297	667.709557	-342.380536	283.571237	574.638117	-476.363892	268.222315	491.457299	-456.976711	213.487709	421.679208	-457.884641	295.166784	482.996067	-429.484368	153.638247	286.545057	-455.291963	145.049559	290.424803	-369.292957	75.778567	308.172640	-421.648675	319.912465	128.524616	-394.291371	246.680787	135.348995	-463.064839	-176.966084	935.424715	-280.521732	-3.223251	85.501242	-484.720915	-15.020350	80.576311	-84.298659	
1254	6.2700	818.909774	1277.156074	-59.006790	835.206919	1242.089834	-383.413925	852.326976	1341.634572	-234.273626	764.449895	1207.414706	-240.669484	578.993683	1114.783814	92.972211	707.859875	921.743366	-65.628363	611.241094	1136.202580	-554.049456	712.785368	916.095477	-454.308315	259.584885	1268.368658	-339.437933	442.918840	1198.764689	-440.266524	361.754785	1291.840551	-144.449774	454.144546	1153.465932	-381.177982	405.989071	1229.790857	-165.454992	288.967332	1314.572548	-303.056290	309.482172	1296.157325	-372.462215	312.067122	1252.454252	-124.822105	359.833599	1117.808087	-465.903213	419.478616	1141.960771	-81.163922	496.659496	1099.898276	-73.427939	542.505852	1029.865430	-59.674673	520.028957	1122.784323	-92.457170	635.396684	918.799594	-64.224880	637.239059	898.599872	-180.588445	539.872077	845.946902	-53.352295	485.311848	775.141850	-74.933003	405.733304	748.082992	-92.712917	509.481509	751.951544	-92.880077	292.191977	642.423680	-118.013402	327.390519	634.606357	-195.647962	229.839894	663.996022	-165.252228	424.652043	433.671131	-146.236028	358.746676	467.684945	-95.270871	350.113309	1036.883407	-478.596902	370.351481	952.310318	-479.400085	405.601236	951.905038	-470.792692	344.641415	867.057920	-479.674210	325.735183	699.272250	-456.382486	339.215895	669.795748	-342.865187	281.364865	578.480931	-477.138151	264.789854	495.535107	-457.714271	209.017214	426.541678	-458.635108	291.632556	486.669229	-430.420363	147.359238	292.113503	-456.037045	139.296312	296.193474	-369.799964	70.152153	315.097401	-421.933029	309.869446	129.654925	-394.793764	236.668642	138.104850	-463.405902	-176.989864	935.471679	-280.421181	-3.229546	85.594773	-484.691577	-15.041896	80.609287	-84.290131	
